<svg width="145" height="37" viewBox="0 0 145 37" fill="none" xmlns="http://www.w3.org/2000/svg">
<path d="M19.18 19.24L16.9 8.46C16.8333 8.04667 16.7467 7.57333 16.64 7.04C16.5467 6.50667 16.4533 5.92 16.36 5.28C16.1333 5.92 15.9067 6.51333 15.68 7.06C15.4533 7.59333 15.2467 8.07333 15.06 8.5L10.14 19.24H19.18ZM26.1 30H22.62C22.22 30 21.9067 29.9067 21.68 29.72C21.4667 29.52 21.3133 29.26 21.22 28.94L19.86 22.48H8.64L5.68 28.94C5.54667 29.22 5.33333 29.4667 5.04 29.68C4.76 29.8933 4.43333 30 4.06 30H0.54L14.56 1.2H19.14L26.1 30ZM33.345 25.36C33.825 25.96 34.385 26.38 35.025 26.62C35.6783 26.86 36.325 26.98 36.965 26.98C37.605 26.98 38.205 26.8467 38.765 26.58C39.325 26.3133 39.8383 25.9467 40.305 25.48C40.7717 25.0133 41.1917 24.4667 41.565 23.84C41.9383 23.2 42.2517 22.52 42.505 21.8C42.7583 21.08 42.9517 20.3333 43.085 19.56C43.2183 18.7733 43.285 18 43.285 17.24C43.285 15.7333 43.025 14.6067 42.505 13.86C41.9983 13.1 41.2717 12.72 40.325 12.72C39.7383 12.72 39.145 12.9133 38.545 13.3C37.945 13.6733 37.365 14.2 36.805 14.88C36.245 15.56 35.7183 16.36 35.225 17.28C34.7317 18.2 34.3117 19.2 33.965 20.28L33.345 25.36ZM34.465 14.52C34.9583 13.72 35.4917 13 36.065 12.36C36.6517 11.72 37.2583 11.1733 37.885 10.72C38.525 10.2533 39.185 9.9 39.865 9.66C40.5583 9.40667 41.265 9.28 41.985 9.28C42.8383 9.28 43.605 9.44 44.285 9.76C44.9783 10.0667 45.565 10.54 46.045 11.18C46.525 11.8067 46.8917 12.5933 47.145 13.54C47.4117 14.4733 47.545 15.5667 47.545 16.82C47.545 17.9533 47.425 19.0733 47.185 20.18C46.9583 21.2867 46.6317 22.34 46.205 23.34C45.7783 24.3267 45.2583 25.2467 44.645 26.1C44.045 26.9533 43.3783 27.6933 42.645 28.32C41.9117 28.9333 41.1183 29.42 40.265 29.78C39.4117 30.1267 38.525 30.3 37.605 30.3C36.645 30.3 35.7717 30.12 34.985 29.76C34.2117 29.4 33.545 28.9 32.985 28.26L31.945 36.78H27.765L31.085 9.56H33.245C33.7117 9.56 34.065 9.68 34.305 9.92C34.5583 10.1467 34.685 10.5067 34.685 11L34.465 14.52ZM54.7122 25.36C55.1922 25.96 55.7522 26.38 56.3922 26.62C57.0455 26.86 57.6922 26.98 58.3322 26.98C58.9722 26.98 59.5722 26.8467 60.1322 26.58C60.6922 26.3133 61.2055 25.9467 61.6722 25.48C62.1389 25.0133 62.5589 24.4667 62.9322 23.84C63.3055 23.2 63.6189 22.52 63.8722 21.8C64.1255 21.08 64.3189 20.3333 64.4522 19.56C64.5855 18.7733 64.6522 18 64.6522 17.24C64.6522 15.7333 64.3922 14.6067 63.8722 13.86C63.3655 13.1 62.6389 12.72 61.6922 12.72C61.1055 12.72 60.5122 12.9133 59.9122 13.3C59.3122 13.6733 58.7322 14.2 58.1722 14.88C57.6122 15.56 57.0855 16.36 56.5922 17.28C56.0989 18.2 55.6789 19.2 55.3322 20.28L54.7122 25.36ZM55.8322 14.52C56.3255 13.72 56.8589 13 57.4322 12.36C58.0189 11.72 58.6255 11.1733 59.2522 10.72C59.8922 10.2533 60.5522 9.9 61.2322 9.66C61.9255 9.40667 62.6322 9.28 63.3522 9.28C64.2055 9.28 64.9722 9.44 65.6522 9.76C66.3455 10.0667 66.9322 10.54 67.4122 11.18C67.8922 11.8067 68.2589 12.5933 68.5122 13.54C68.7789 14.4733 68.9122 15.5667 68.9122 16.82C68.9122 17.9533 68.7922 19.0733 68.5522 20.18C68.3255 21.2867 67.9989 22.34 67.5722 23.34C67.1455 24.3267 66.6255 25.2467 66.0122 26.1C65.4122 26.9533 64.7455 27.6933 64.0122 28.32C63.2789 28.9333 62.4855 29.42 61.6322 29.78C60.7789 30.1267 59.8922 30.3 58.9722 30.3C58.0122 30.3 57.1389 30.12 56.3522 29.76C55.5789 29.4 54.9122 28.9 54.3522 28.26L53.3122 36.78H49.1322L52.4522 9.56H54.6122C55.0789 9.56 55.4322 9.68 55.6722 9.92C55.9255 10.1467 56.0522 10.5067 56.0522 11L55.8322 14.52ZM81.8394 12.36C81.0927 12.36 80.3994 12.5133 79.7594 12.82C79.1327 13.1267 78.566 13.5533 78.0594 14.1C77.566 14.6333 77.1327 15.2733 76.7594 16.02C76.3994 16.7667 76.1194 17.58 75.9194 18.46C77.7594 18.22 79.2394 17.9533 80.3594 17.66C81.4794 17.3667 82.3394 17.0467 82.9394 16.7C83.5394 16.3533 83.9394 15.9867 84.1394 15.6C84.3394 15.2 84.4394 14.78 84.4394 14.34C84.4394 14.1267 84.3927 13.9 84.2994 13.66C84.206 13.42 84.0527 13.2067 83.8394 13.02C83.6394 12.8333 83.3727 12.68 83.0394 12.56C82.706 12.4267 82.306 12.36 81.8394 12.36ZM87.8194 26.22C87.126 26.9267 86.446 27.54 85.7794 28.06C85.1127 28.5667 84.4327 28.9867 83.7394 29.32C83.046 29.6533 82.3194 29.9 81.5594 30.06C80.7994 30.22 79.9727 30.3 79.0794 30.3C77.8927 30.3 76.826 30.1 75.8794 29.7C74.9327 29.3 74.1194 28.74 73.4394 28.02C72.7727 27.2867 72.2594 26.4067 71.8994 25.38C71.5394 24.34 71.3594 23.18 71.3594 21.9C71.3594 20.8333 71.4727 19.7867 71.6994 18.76C71.926 17.72 72.2527 16.7333 72.6794 15.8C73.1194 14.8667 73.646 14.0067 74.2594 13.22C74.886 12.42 75.5927 11.7333 76.3794 11.16C77.1794 10.5867 78.0527 10.14 78.9994 9.82C79.9594 9.48667 80.986 9.32 82.0794 9.32C83.1327 9.32 84.046 9.47333 84.8194 9.78C85.5927 10.0733 86.2327 10.46 86.7394 10.94C87.2594 11.4067 87.646 11.9267 87.8994 12.5C88.1527 13.0733 88.2794 13.6333 88.2794 14.18C88.2794 15.0733 88.0927 15.8933 87.7194 16.64C87.3594 17.3867 86.706 18.06 85.7594 18.66C84.8127 19.26 83.5127 19.78 81.8594 20.22C80.2194 20.66 78.1127 21.0133 75.5394 21.28C75.526 21.36 75.5194 21.4467 75.5194 21.54C75.5194 21.62 75.5194 21.7067 75.5194 21.8C75.5194 23.4933 75.886 24.7733 76.6194 25.64C77.3527 26.4933 78.4527 26.92 79.9194 26.92C80.8394 26.92 81.606 26.7933 82.2194 26.54C82.8327 26.2867 83.3527 26.0133 83.7794 25.72C84.2194 25.4133 84.5994 25.1333 84.9194 24.88C85.2527 24.6267 85.5994 24.5 85.9594 24.5C86.2394 24.5 86.4994 24.6333 86.7394 24.9L87.8194 26.22ZM110.999 12.92L108.899 30H104.759L106.859 12.92H97.8991L96.7191 22.36C96.6524 22.9067 96.5991 23.3467 96.5591 23.68C96.5191 24 96.4857 24.26 96.4591 24.46C96.4457 24.6467 96.4324 24.78 96.4191 24.86C96.4191 24.9267 96.4191 24.98 96.4191 25.02C96.4191 25.6067 96.5591 26.0533 96.8391 26.36C97.1191 26.6667 97.5124 26.82 98.0191 26.82C98.3257 26.82 98.5924 26.78 98.8191 26.7C99.0591 26.6067 99.2591 26.5133 99.4191 26.42C99.5924 26.3133 99.7391 26.22 99.8591 26.14C99.9924 26.0467 100.112 26 100.219 26C100.352 26 100.452 26.0333 100.519 26.1C100.586 26.1533 100.652 26.2533 100.719 26.4L101.639 28.5C100.946 29.0867 100.166 29.54 99.2991 29.86C98.4457 30.1667 97.5791 30.32 96.6991 30.32C95.3124 30.32 94.2191 29.9467 93.4191 29.2C92.6324 28.44 92.2191 27.3667 92.1791 25.98C92.1791 25.8867 92.1791 25.78 92.1791 25.66C92.1791 25.5267 92.1857 25.34 92.1991 25.1C92.2257 24.86 92.2591 24.54 92.2991 24.14C92.3524 23.74 92.4191 23.2267 92.4991 22.6L93.6991 12.92H91.6791C91.4524 12.92 91.2657 12.8467 91.1191 12.7C90.9857 12.54 90.9324 12.3133 90.9591 12.02L91.1591 10.36L94.2391 9.88L95.8191 3.94C95.8991 3.71333 96.0191 3.53333 96.1791 3.4C96.3524 3.25333 96.5657 3.18 96.8191 3.18H99.0991L98.2591 9.92H111.359L110.999 12.92ZM113.079 3.44C113.079 3.82667 112.999 4.19333 112.839 4.54C112.679 4.88667 112.466 5.19333 112.199 5.46C111.932 5.71333 111.632 5.92 111.299 6.08C110.966 6.22667 110.619 6.3 110.259 6.3C109.899 6.3 109.552 6.22667 109.219 6.08C108.899 5.92 108.612 5.71333 108.359 5.46C108.119 5.19333 107.919 4.88667 107.759 4.54C107.612 4.19333 107.539 3.82667 107.539 3.44C107.539 3.05333 107.612 2.68667 107.759 2.34C107.919 1.98 108.126 1.67333 108.379 1.42C108.632 1.15333 108.926 0.946665 109.259 0.799999C109.592 0.639998 109.932 0.559998 110.279 0.559998C110.639 0.559998 110.986 0.639998 111.319 0.799999C111.666 0.946665 111.966 1.15333 112.219 1.42C112.486 1.67333 112.692 1.97333 112.839 2.32C112.999 2.66667 113.079 3.04 113.079 3.44ZM115.695 25.98C115.695 25.8867 115.695 25.78 115.695 25.66C115.708 25.5267 115.721 25.34 115.735 25.1C115.761 24.86 115.795 24.54 115.835 24.14C115.875 23.74 115.935 23.2267 116.015 22.6L117.195 12.98H115.135C114.908 12.98 114.728 12.9067 114.595 12.76C114.461 12.6 114.415 12.3667 114.455 12.06L114.655 10.32L117.755 9.84L119.355 3.94C119.435 3.71333 119.555 3.53333 119.715 3.4C119.888 3.25333 120.095 3.18 120.335 3.18H122.615L121.775 9.88H126.915L126.555 12.98H121.395L120.255 22.36C120.188 22.9067 120.135 23.3467 120.095 23.68C120.055 24 120.021 24.26 119.995 24.46C119.981 24.6467 119.968 24.78 119.955 24.86C119.955 24.9267 119.955 24.98 119.955 25.02C119.955 25.6067 120.095 26.0533 120.375 26.36C120.655 26.6667 121.041 26.82 121.535 26.82C121.855 26.82 122.128 26.78 122.355 26.7C122.581 26.6067 122.781 26.5133 122.955 26.42C123.128 26.3133 123.275 26.22 123.395 26.14C123.515 26.0467 123.628 26 123.735 26C123.881 26 123.988 26.0333 124.055 26.1C124.121 26.1533 124.188 26.2533 124.255 26.4L125.175 28.5C124.468 29.0867 123.681 29.54 122.815 29.86C121.961 30.1667 121.095 30.32 120.215 30.32C118.841 30.32 117.755 29.9467 116.955 29.2C116.155 28.44 115.735 27.3667 115.695 25.98ZM138.519 12.36C137.772 12.36 137.079 12.5133 136.439 12.82C135.812 13.1267 135.246 13.5533 134.739 14.1C134.246 14.6333 133.812 15.2733 133.439 16.02C133.079 16.7667 132.799 17.58 132.599 18.46C134.439 18.22 135.919 17.9533 137.039 17.66C138.159 17.3667 139.019 17.0467 139.619 16.7C140.219 16.3533 140.619 15.9867 140.819 15.6C141.019 15.2 141.119 14.78 141.119 14.34C141.119 14.1267 141.072 13.9 140.979 13.66C140.886 13.42 140.732 13.2067 140.519 13.02C140.319 12.8333 140.052 12.68 139.719 12.56C139.386 12.4267 138.986 12.36 138.519 12.36ZM144.499 26.22C143.806 26.9267 143.126 27.54 142.459 28.06C141.792 28.5667 141.112 28.9867 140.419 29.32C139.726 29.6533 138.999 29.9 138.239 30.06C137.479 30.22 136.652 30.3 135.759 30.3C134.572 30.3 133.506 30.1 132.559 29.7C131.612 29.3 130.799 28.74 130.119 28.02C129.452 27.2867 128.939 26.4067 128.579 25.38C128.219 24.34 128.039 23.18 128.039 21.9C128.039 20.8333 128.152 19.7867 128.379 18.76C128.606 17.72 128.932 16.7333 129.359 15.8C129.799 14.8667 130.326 14.0067 130.939 13.22C131.566 12.42 132.272 11.7333 133.059 11.16C133.859 10.5867 134.732 10.14 135.679 9.82C136.639 9.48667 137.666 9.32 138.759 9.32C139.812 9.32 140.726 9.47333 141.499 9.78C142.272 10.0733 142.912 10.46 143.419 10.94C143.939 11.4067 144.326 11.9267 144.579 12.5C144.832 13.0733 144.959 13.6333 144.959 14.18C144.959 15.0733 144.772 15.8933 144.399 16.64C144.039 17.3867 143.386 18.06 142.439 18.66C141.492 19.26 140.192 19.78 138.539 20.22C136.899 20.66 134.792 21.0133 132.219 21.28C132.206 21.36 132.199 21.4467 132.199 21.54C132.199 21.62 132.199 21.7067 132.199 21.8C132.199 23.4933 132.566 24.7733 133.299 25.64C134.032 26.4933 135.132 26.92 136.599 26.92C137.519 26.92 138.286 26.7933 138.899 26.54C139.512 26.2867 140.032 26.0133 140.459 25.72C140.899 25.4133 141.279 25.1333 141.599 24.88C141.932 24.6267 142.279 24.5 142.639 24.5C142.919 24.5 143.179 24.6333 143.419 24.9L144.499 26.22Z" fill="#DC3444"/>
</svg>
